<svg width="445" height="667" viewBox="0 0 445 667" fill="none" xmlns="http://www.w3.org/2000/svg">
<g clip-path="url(#clip0_1_152)">
<path d="M445 111.167C445 140.65 433.279 168.926 412.416 189.773C391.552 210.621 363.255 222.333 333.75 222.333L222.5 222.333L222.5 111.167C222.5 81.6834 234.221 53.4078 255.084 32.56C275.948 11.7122 304.245 1.52588e-05 333.75 1.52588e-05C363.255 1.52588e-05 391.552 11.7122 412.416 32.56C433.279 53.4078 445 81.6834 445 111.167Z" fill="#CC7D24"/>
<path d="M222.5 667L222.5 444.667H111.25C81.7447 444.667 53.4478 456.379 32.5844 477.227C11.7209 498.074 0 526.35 0 555.833C0 585.317 11.7209 613.592 32.5844 634.44C53.4478 655.288 81.7447 667 111.25 667H222.5Z" fill="#CC7D24"/>
<path d="M445 555.833C445 526.35 433.279 498.074 412.416 477.227C391.552 456.379 363.255 444.667 333.75 444.667L222.5 444.667L222.5 667L333.75 667C363.255 667 391.552 655.288 412.416 634.44C433.279 613.592 445 585.317 445 555.833Z" fill="#CC7D24"/>
<path d="M445 333.5C445 304.017 433.279 275.741 412.416 254.893C391.552 234.046 363.255 222.333 333.75 222.333L222.5 222.333L222.5 444.667H333.75C363.255 444.667 391.552 432.954 412.416 412.107C433.279 391.259 445 362.983 445 333.5H445Z" fill="#CC7D24"/>
<path d="M-0.564484 235.036C-0.67999 205.553 10.9301 177.232 31.7117 156.303C52.4933 135.373 80.744 123.551 110.249 123.435C139.754 123.32 168.097 134.921 189.042 155.687C209.987 176.453 221.818 204.683 221.934 234.166C222.049 263.649 210.439 291.97 189.658 312.899C168.876 333.829 140.625 345.651 111.12 345.767C81.6151 345.882 53.2725 334.281 32.3276 313.515C11.3827 292.749 -0.448978 264.519 -0.564484 235.036Z" fill="#8C4A10"/>
</g>
<defs>
<clipPath id="clip0_1_152">
<rect x="445" y="667" width="445" height="667" rx="90" transform="rotate(-180 445 667)" fill="white"/>
</clipPath>
</defs>
</svg>
