<svg version="1.1" xmlns="http://www.w3.org/2000/svg" xmlns:xlink="http://www.w3.org/1999/xlink" preserveAspectRatio="xMidYMid meet" viewBox="675 256 115 166"><g data-item-type="text" data-item="Business" id="logo__item--business" class="logo__item">
                <g class="logo__item__inner" transform="translate(700.2000007629395 419.2430812932048) scale(1 1) rotate(0 0 0)">
                    <text data-part-id="logo__item--business" dy="0" dominant-baseline="auto" alignment-baseline="auto" font-family="Montserrat" font-size="32px" fill="#F69320" letter-spacing="0" font-weight="bold" font-style="normal" data-font-family="Montserrat" data-font-weight="bold" data-font-style="normal" data-ttf-url="/builder_assets/fontsttf/font-montserrat-bold-normal.ttf">OJ0</text>
                </g>
            </g><g data-item-type="image" data-item="Image" data-logo-item="" id="logo__item--logo_0" class="logo__item">
    <g class="logo__item__inner" transform="translate(665.4470219032377 251.5) scale(0.9026902955903467 0.9026902955903467) rotate(0 0 0)">
        
<g>
	<g>
		<path fill="#F69320" d="M134.6,81.8c-5.2-1.4-10.3-5.5-10-10.7c0.2-3.2,3.3-12.1,9.7-13.8c0.3-0.3,0.9-1.8,0.4-3.9    c-0.5-2-1.7-3-2.1-3.1c-2.5,0.7-5.1,0.8-7.4,0.3c-3-0.6-5.3-2.2-6.6-4.6c-1.4-2.9-3-12.2,1.6-16.8c0.1-0.4-0.1-2-1.6-3.5    c-0.8-0.8-1.8-1.4-2.7-1.6c-0.4-0.1-0.6-0.1-0.7-0.1l0,0c-3.4,3.4-8,5.1-11.6,4.3c-0.9-0.2-1.8-0.5-2.6-1.1c-2.7-1.8-8.8-9-7-15.3    c-0.1-0.4-1.1-1.7-3.1-2.2l-0.3-0.1c-1.9-0.4-3.3,0.2-3.5,0.3c-1.4,5.1-5.5,10.2-10.7,10c-0.4,0-1-0.1-1.6-0.2    c-2.9-0.6-10.6-3.5-12.2-9.5c-0.1-0.1-0.4-0.3-1.1-0.5c-0.8-0.2-1.8-0.1-2.7,0.1c-2.1,0.6-3.1,1.8-3.2,2.1    c1.8,6.6-4.3,13.8-7,15.5c-1.9,1.2-4.2,1.6-6.8,1c-2.6-0.6-5.4-2.1-7.4-4.2c-0.5-0.1-2,0.2-3.5,1.6c-1.5,1.5-1.7,3.1-1.7,3.4    c3.7,3.8,6.1,9.9,3.3,14.2c-1.7,2.6-8.6,8.6-15.1,7.2l-0.3-0.1c-0.4,0.1-1.7,1.1-2.2,3.2c-0.6,2.1,0,3.5,0.2,3.7    c5.2,1.4,10.3,5.5,10,10.7c-0.2,3.2-3.3,12.1-9.8,13.8c-0.3,0.3-0.9,1.8-0.4,3.9c0.5,2,1.7,3,2.1,3.1c2.5-0.7,5.1-0.8,7.5-0.3    c3,0.6,5.3,2.3,6.5,4.5c1.5,2.9,3.2,12.2-1.5,16.8c-0.2,0.4,0.1,2,1.7,3.5c0.8,0.8,1.8,1.4,2.6,1.5c0.4,0.1,0.6,0.1,0.7,0.1l0,0    c3.4-3.4,8-5.1,11.6-4.3c1,0.2,1.8,0.6,2.6,1.1c2.7,1.7,8.9,8.9,7.1,15.3c0.1,0.4,1.1,1.7,3.2,2.2l0.4,0.1    c1.9,0.4,3.2-0.2,3.4-0.3c0.6-2.1,1.4-3.9,2.5-5.4c0.3-1.1,0.5-2.3,0.7-3.4c0.7-3.9,1-6.3,0.8-7.8c-0.4-0.1-0.7-0.1-1.1-0.2    c-8.3-1.8-15.8-5.9-21.8-11.8c-17.1-17.1-17.2-44.9-0.1-62.1c10.6-10.6,25.7-15.1,40.3-12c8.3,1.8,15.8,5.8,21.8,11.8    c8.3,8.3,12.9,19.3,12.9,31.1c0,11.7-4.5,22.8-12.8,31.1c-6.4,6.4-14.4,10.6-23,12.2c-0.1,1.5,0.1,3.7,0.7,7.4    c0.2,1.5,0.6,3.1,1,4.7c1.2,1.2,2.1,2.6,2.5,4.3c0.1,0.1,0.4,0.3,1.1,0.5c0.8,0.2,1.8,0.1,2.7-0.1c2.1-0.6,3.1-1.8,3.1-2.1    c-1.4-5.1-0.4-11.6,4.3-14c2.5-1.3,7.4-2,11.5-1.1c2.2,0.5,4.1,1.4,5.3,2.7c0.5,0.1,2-0.1,3.5-1.6c1.5-1.5,1.8-3.1,1.7-3.4    c-3.8-3.8-6.1-9.9-3.3-14.2c1.9-3.1,9-8.5,15.1-7.2l0.2,0.1c0.4-0.1,1.7-1.1,2.3-3.1C135.4,83.5,134.8,82,134.6,81.8z" data-part-id="logo__item--logo_0__0"></path>
		<path fill="#F69320" d="M99.8,69.7c0-4.7-1.3-9.2-3.5-13C91.4,58.6,85.2,61,85,61.1c2.5-3.2,4.9-6.4,7.4-9.6    c-4.6-4.7-11-7.7-18.1-7.8c-0.2,0-0.4,0-0.5,0c-14.4,0-26,11.6-26,26c0,14.4,11.6,26,26,26c0.2,0,0.4,0,0.5,0    c3.4-0.1,6.6-0.8,9.6-2C93.3,89.7,99.8,80.4,99.8,69.7z M73.8,79.8c-5.6,0-10.2-4.6-10.2-10.2c0-5.6,4.6-10.2,10.2-10.2    c0.2,0,0.4,0,0.5,0c5.4,0.3,9.6,4.7,9.6,10.1c0,5.4-4.2,9.9-9.6,10.1C74.2,79.8,74,79.8,73.8,79.8z M54.5,61.8    c-0.2,0-0.4,0-0.6-0.1c-0.8-0.3-1.1-1.2-0.8-2c3.3-7.9,11-13,19.6-13c0.8,0,1.5,0.7,1.5,1.5c0,0.8-0.7,1.5-1.5,1.5    c-7.3,0-13.9,4.4-16.8,11.1C55.7,61.5,55.1,61.8,54.5,61.8z" data-part-id="logo__item--logo_0__1"></path>
	</g>
	<g>
		<path fill="#231F20" d="M74.3,59.5c-0.2,0-0.4,0-0.5,0c-5.6,0-10.2,4.6-10.2,10.2c0,5.6,4.6,10.2,10.2,10.2c0.2,0,0.4,0,0.5,0    c5.4-0.3,9.6-4.7,9.6-10.1C84,64.2,79.7,59.8,74.3,59.5z" data-part-id="logo__item--logo_0__2"></path>
		<path fill="#231F20" d="M74.9,31.3c-21.2,0-38.4,17.2-38.4,38.4c0,1.2,0.1,2.3,0.2,3.5c0,0.3,0.1,0.6,0.1,0.8    c0.1,1.1,0.3,2.3,0.5,3.4c0,0.1,0,0.2,0.1,0.2c0.2,1,0.5,2.1,0.8,3.1c0.1,0.3,0.2,0.5,0.2,0.8c0.3,1,0.7,2.1,1.1,3.1    c0.1,0.1,0.1,0.3,0.2,0.4c0.4,0.9,0.8,1.8,1.3,2.6c0.1,0.2,0.3,0.5,0.4,0.7c0.5,0.9,1.1,1.9,1.7,2.7c0.1,0.2,0.2,0.3,0.3,0.5    c0.5,0.8,1.1,1.5,1.7,2.2c0.2,0.2,0.3,0.4,0.5,0.6c0.7,0.8,1.4,1.6,2.1,2.3c0.2,0.2,0.4,0.3,0.5,0.5c0.6,0.6,1.3,1.2,1.9,1.8    c0.2,0.2,0.4,0.4,0.7,0.6c0.8,0.6,1.6,1.3,2.5,1.9c0.2,0.2,0.5,0.3,0.7,0.5c0.4,0.2,0.7,0.5,1.1,0.7c0.5,0.3,1,0.6,1.5,0.8    c0.1,0.1,0.2,0.1,0.3,0.2c1.1,0.6,2.1,1,3,1.4c0.1,0.1,0.2,0.1,0.3,0.2c8.1,3.4,11.2,1.7,8.8,16c-0.6,3.4-1.4,6.8-2.6,10.3    c-0.8,2.1-1.6,3.7-2.5,5c-2.6,0.1-5,0.3-7,0.6c-4.9,0.5-8,1.3-8,2.2c0,0.8,3,1.6,7.7,2.2c4.6,0.5,10.8,0.9,17.8,0.9    c14.1,0,25.5-1.4,25.5-3c0-1.2-5.5-2.2-13.7-2.7c-0.9-1.4-1.7-3-2.6-5.1c-1.2-3.7-2.1-7.2-2.7-10.7c-2.2-14.1,0.8-12.2,8.9-15.6    c0.1,0,0.2-0.1,0.3-0.1c1-0.4,2-0.9,3.1-1.5c0,0,0.1,0,0.1-0.1c0.4-0.2,0.8-0.4,1.2-0.7c0.6-0.3,1.1-0.7,1.6-1    c0.1-0.1,0.2-0.1,0.3-0.2c0.9-0.6,1.7-1.3,2.6-1.9c0.2-0.2,0.4-0.4,0.7-0.6c0.7-0.6,1.4-1.3,2.1-1.9c0.1-0.1,0.2-0.2,0.3-0.3    c0.7-0.7,1.4-1.5,2.1-2.3c0.2-0.2,0.4-0.5,0.6-0.7c0.6-0.7,1.2-1.5,1.7-2.3c0.1-0.1,0.2-0.2,0.2-0.3c0.6-0.9,1.1-1.8,1.7-2.7    c0.2-0.3,0.3-0.5,0.4-0.8c0.5-0.9,0.9-1.8,1.3-2.7c0-0.1,0.1-0.2,0.1-0.3c0.4-1,0.8-2,1.1-3.1c0.1-0.3,0.2-0.6,0.3-0.8    c0.3-1,0.6-2.1,0.8-3.1c0,0,0-0.1,0-0.1c0.2-1.1,0.4-2.2,0.5-3.4c0-0.3,0.1-0.6,0.1-0.9c0.1-1.2,0.2-2.3,0.2-3.5    C113.3,48.5,96.1,31.3,74.9,31.3z M97.2,56.3c-0.3,0.1-0.6,0.2-0.9,0.3c2.2,3.8,3.5,8.3,3.5,13c0,10.8-6.5,20-15.9,24    c-3,1.3-6.2,2-9.6,2c-0.2,0-0.4,0-0.5,0c-14.4,0-26-11.6-26-26c0-14.4,11.6-26,26-26c0.2,0,0.4,0,0.5,0c7.1,0.1,13.5,3.1,18.1,7.8    c0.2-0.2,0.3-0.4,0.5-0.6c1.1-1.4,2.1-2.7,3.2-4.1c2.6,1.9,4.7,4.4,5.9,7.6C102,54.4,99.9,55.2,97.2,56.3z" data-part-id="logo__item--logo_0__3"></path>
	</g>
</g>

    </g>
</g></svg>
