<svg width="128" height="128" viewBox="0 0 128 128" fill="none" xmlns="http://www.w3.org/2000/svg">
<mask id="mask0_1_21" style="mask-type:luminance" maskUnits="userSpaceOnUse" x="0" y="0" width="128" height="128">
<path d="M0 128L128 128L128 0L0 0L0 128Z" fill="white"/>
</mask>
<g mask="url(#mask0_1_21)">
<path d="M0.889824 29.3211C0.889382 24.2899 2.25676 19.3524 4.84691 15.0322C7.43692 10.712 11.1533 7.17019 15.6017 4.78233C20.0501 2.39462 25.0646 1.24986 30.1136 1.46958C35.1627 1.68915 40.0578 3.26513 44.2799 6.03013C46.0307 7.3222 47.7022 8.71715 49.2859 10.2077C53.3201 13.5936 58.9739 14.7662 64.6278 14.7662C69.7221 14.7662 74.8606 13.96 78.6298 11.1018C80.4403 9.01236 82.5545 7.20419 84.902 5.73712C84.9504 5.71484 84.9952 5.68509 85.0345 5.64918V5.63452C85.0756 5.60491 85.12 5.58029 85.167 5.56124C85.1964 5.53192 85.2112 5.53192 85.2112 5.53192C89.6004 2.84929 94.6519 1.43352 99.8021 1.44246H99.9935C105.736 1.44436 111.338 3.20268 116.043 6.47967C120.748 9.75666 124.328 14.3937 126.297 19.7632C128.267 25.1326 128.532 30.9749 127.056 36.4991C125.58 42.0234 122.434 46.9624 118.045 50.6479C116.476 52.7861 115.419 55.2525 114.953 57.8594C114.949 57.9576 114.939 58.0555 114.923 58.1525C114.54 60.256 114.358 62.3908 114.378 64.5286C114.378 70.1277 115.512 75.7121 118.869 79.6843C120.457 81.3326 121.937 83.0803 123.301 84.9172C126.047 89.127 127.601 93.9968 127.799 99.0126C127.997 104.028 126.831 109.005 124.425 113.416C122.018 117.827 118.461 121.51 114.127 124.076C109.793 126.642 104.844 127.996 99.8021 127.996H99.4929C92.1181 127.911 85.0741 124.935 79.8894 119.713C74.7045 114.491 71.7972 107.445 71.7981 100.102V99.9705C71.8213 94.5708 73.4227 89.2945 76.4065 84.7853C77.7074 83.0447 79.1084 81.3808 80.6027 79.8017C84.0038 75.7856 85.1817 70.1717 85.1817 64.5286C85.1931 62.7239 85.07 60.921 84.8136 59.1346C84.4438 55.8637 83.1809 52.7562 81.1622 50.1495C80.5438 49.402 79.8813 48.6837 79.2187 47.9655C79.1304 47.9069 79.0568 47.8336 78.9831 47.775C75.2287 44.6529 69.884 43.8321 64.6278 43.8321C64.0094 43.8321 63.3763 43.8468 62.7579 43.8761C57.7961 44.1106 52.9668 45.3272 49.4184 48.3173C47.757 49.893 45.9964 51.3617 44.1474 52.7146C40.674 54.9594 36.7441 56.4102 32.6404 56.9626C28.5365 57.5151 24.3607 57.1557 20.4132 55.9099C20.3809 55.9014 20.3509 55.8865 20.3248 55.8658C14.6779 54.0623 9.75248 50.5195 6.25933 45.7484C2.76619 40.9774 0.885848 35.2249 0.889824 29.3211Z" fill="url(#paint0_linear_1_21)"/>
<path d="M0.889733 100.107C0.889292 94.6535 2.49459 89.3197 5.50716 84.7652C8.51973 80.2108 12.8074 76.6354 17.8397 74.4815C22.872 72.3275 28.4282 71.6895 33.821 72.6462C39.2138 73.603 44.2065 76.1126 48.1815 79.8646L48.2259 79.9086C50.9163 82.4549 53.069 85.5103 54.5581 88.8956C56.0473 92.2807 56.8428 95.9278 56.898 99.623V99.6772C56.9102 99.8185 56.9151 99.9604 56.9126 100.102C56.9129 104.961 55.6384 109.735 53.2152 113.953C50.792 118.17 47.3042 121.684 43.0974 124.147C38.8904 126.61 34.1102 127.936 29.2302 127.994C24.3501 128.052 19.5395 126.84 15.2747 124.478C15.1717 124.405 15.1273 124.375 15.1273 124.375C10.2369 121.632 6.29119 117.484 3.80513 112.473C3.7907 112.441 3.77083 112.411 3.74609 112.385C1.86296 108.564 0.885758 104.363 0.889733 100.107Z" fill="url(#paint1_linear_1_21)"/>
</g>
<defs>
<linearGradient id="paint0_linear_1_21" x1="64.4435" y1="124.579" x2="64.4435" y2="2.45485" gradientUnits="userSpaceOnUse">
<stop stop-color="#CC7D24"/>
<stop offset="0.195" stop-color="#CC7D24"/>
<stop offset="0.452" stop-color="#CC7D24"/>
<stop offset="0.743" stop-color="#CC7D24"/>
<stop offset="1" stop-color="#CC7D24"/>
</linearGradient>
<linearGradient id="paint1_linear_1_21" x1="28.9014" y1="128.554" x2="28.9014" y2="74.3891" gradientUnits="userSpaceOnUse">
<stop stop-color="#CC7D24"/>
<stop offset="0.195" stop-color="#CC7D24"/>
<stop offset="0.452" stop-color="#CC7D24"/>
<stop offset="0.743" stop-color="#CC7D24"/>
<stop offset="1" stop-color="#CC7D24"/>
</linearGradient>
</defs>
</svg>
