<svg width="399" height="139" viewBox="0 0 399 139" fill="none" xmlns="http://www.w3.org/2000/svg">
<mask id="mask0_0_1" style="mask-type:luminance" maskUnits="userSpaceOnUse" x="0" y="1" width="128" height="128">
<path d="M0 129L128 129L128 1L0 1L0 129Z" fill="white"/>
</mask>
<g mask="url(#mask0_0_1)">
<path d="M0.88982 30.3211C0.889378 25.2899 2.25676 20.3524 4.84691 16.0322C7.43692 11.712 11.1533 8.1702 15.6017 5.78234C20.0501 3.39462 25.0646 2.24987 30.1136 2.46958C35.1627 2.68915 40.0578 4.26514 44.2799 7.03014C46.0307 8.3222 47.7022 9.71716 49.2859 11.2077C53.3201 14.5936 58.9739 15.7662 64.6278 15.7662C69.7221 15.7662 74.8606 14.96 78.6298 12.1018C80.4403 10.0124 82.5545 8.2042 84.902 6.73713C84.9504 6.71485 84.9952 6.6851 85.0345 6.64919V6.63453C85.0756 6.60492 85.12 6.5803 85.167 6.56124C85.1964 6.53193 85.2112 6.53192 85.2112 6.53192C89.6004 3.8493 94.6519 2.43352 99.8021 2.44247H99.9935C105.736 2.44437 111.338 4.20269 116.043 7.47968C120.748 10.7567 124.328 15.3937 126.297 20.7632C128.267 26.1326 128.532 31.9749 127.056 37.4991C125.58 43.0234 122.434 47.9624 118.044 51.6479C116.476 53.7861 115.419 56.2525 114.953 58.8594C114.949 58.9576 114.939 59.0555 114.923 59.1525C114.54 61.256 114.358 63.3908 114.378 65.5286C114.378 71.1278 115.512 76.7121 118.869 80.6843C120.457 82.3326 121.937 84.0803 123.301 85.9172C126.047 90.127 127.601 94.9968 127.799 100.013C127.997 105.028 126.831 110.005 124.425 114.416C122.018 118.827 118.461 122.51 114.127 125.076C109.793 127.642 104.844 128.996 99.8021 128.996H99.4929C92.1181 128.911 85.0741 125.935 79.8894 120.713C74.7045 115.491 71.7972 108.445 71.7981 101.102V100.971C71.8213 95.5708 73.4227 90.2945 76.4065 85.7853C77.7073 84.0447 79.1084 82.3808 80.6027 80.8017C84.0038 76.7856 85.1817 71.1717 85.1817 65.5286C85.1931 63.7239 85.07 61.9211 84.8136 60.1346C84.4438 56.8638 83.1809 53.7562 81.1622 51.1495C80.5438 50.402 79.8813 49.6838 79.2187 48.9655C79.1304 48.9069 79.0568 48.8336 78.9831 48.775C75.2287 45.6529 69.884 44.8321 64.6278 44.8321C64.0094 44.8321 63.3763 44.8468 62.7579 44.8761C57.7961 45.1106 52.9668 46.3272 49.4184 49.3173C47.757 50.893 45.9964 52.3617 44.1474 53.7146C40.674 55.9594 36.7441 57.4102 32.6404 57.9626C28.5365 58.5151 24.3607 58.1557 20.4132 56.9099C20.3809 56.9014 20.3509 56.8865 20.3248 56.8658C14.6779 55.0623 9.75247 51.5195 6.25933 46.7484C2.76619 41.9774 0.885845 36.2249 0.88982 30.3211Z" fill="url(#paint0_linear_0_1)"/>
<path d="M0.889726 101.107C0.889284 95.6535 2.49459 90.3197 5.50716 85.7652C8.51973 81.2108 12.8073 77.6354 17.8397 75.4815C22.872 73.3275 28.4282 72.6895 33.821 73.6462C39.2138 74.603 44.2065 77.1126 48.1815 80.8646L48.2259 80.9086C50.9163 83.4549 53.069 86.5102 54.5581 89.8956C56.0473 93.2807 56.8428 96.9278 56.898 100.623V100.677C56.9102 100.819 56.9151 100.96 56.9126 101.102C56.9128 105.961 55.6384 110.735 53.2152 114.953C50.792 119.17 47.3042 122.684 43.0974 125.147C38.8904 127.61 34.1102 128.936 29.2302 128.994C24.3501 129.052 19.5395 127.84 15.2747 125.478C15.1717 125.405 15.1273 125.375 15.1273 125.375C10.2369 122.632 6.29118 118.484 3.80512 113.473C3.7907 113.441 3.77082 113.411 3.74608 113.385C1.86295 109.564 0.88575 105.363 0.889726 101.107Z" fill="url(#paint1_linear_0_1)"/>
</g>
<path d="M180.916 117.527C178.455 116.941 176.492 116.15 175.027 115.154C173.621 114.158 172.332 112.166 171.16 109.178C170.047 106.131 168.963 102.117 167.908 97.1367C166.912 92.0977 166.062 86.7949 165.359 81.2285C164.012 70.5645 163.338 61.3945 163.338 53.7188C163.338 40.418 163.689 32.0391 164.393 28.582C165.096 25.0664 165.828 22.3711 166.59 20.4961C167.352 18.6211 168.348 16.9512 169.578 15.4863C171.863 12.6738 175.027 10.5352 179.07 9.07031C183.113 7.60547 187.449 6.4043 192.078 5.4668C196.707 4.4707 201.629 3.65039 206.844 3.00586C217.215 1.7168 228.377 0.955078 240.33 0.720703L243.582 21.9902C222.664 22.8105 205.906 24.5391 193.309 27.1758C190.73 27.7617 188.592 28.377 186.893 29.0215C186.189 33.0059 185.838 38.6602 185.838 45.9844C185.838 53.3086 185.926 58.9922 186.102 63.0352C186.277 67.0781 186.541 71.1211 186.893 75.1641C187.654 84.3047 188.855 92.0977 190.496 98.543C191.316 98.6602 192.166 98.7188 193.045 98.7188C193.924 98.7188 195.535 98.7188 197.879 98.7188C203.387 98.7188 209.012 98.0449 214.754 96.6973C217.684 77.6543 219.148 56.5898 219.148 33.5039L241.033 34.9102C241.326 39.0117 241.473 42.6152 241.473 45.7207C241.473 48.7676 241.355 52.0488 241.121 55.5645C240.945 59.0215 240.682 62.5664 240.33 66.1992C239.979 69.7734 239.568 73.377 239.1 77.0098C238.631 80.584 238.162 84.0117 237.693 87.293C237.225 90.5156 236.756 93.5039 236.287 96.2578L235.057 103.113C234.061 107.918 232.918 110.965 231.629 112.254C230.398 113.543 229.197 114.451 228.025 114.979C226.912 115.447 225.477 115.857 223.719 116.209C221.961 116.561 220.027 116.854 217.918 117.088C215.867 117.381 213.699 117.615 211.414 117.791C209.129 117.967 206.932 118.113 204.822 118.23C201.307 118.348 198.055 118.406 195.066 118.406C188.094 118.406 183.377 118.113 180.916 117.527ZM256.941 121.834C263.504 118.436 269.1 115.008 273.729 111.551C278.416 108.094 281.404 105.721 282.693 104.432L281.463 54.5098V23.5723L260.018 21.1992L263.27 1.42383L274.168 2.83008C288.23 4.58789 298.396 6.46289 304.666 8.45508L302.557 107.068C302.557 109.764 302.059 111.844 301.062 113.309C298.836 116.707 295.994 119.783 292.537 122.537C289.08 125.291 286.121 127.547 283.66 129.305C277.801 133.523 272.762 136.688 268.543 138.797L256.941 121.834ZM397.127 57.7617C397.244 59.7539 397.303 62.2734 397.303 65.3203C397.303 68.3672 397.098 72.0293 396.688 76.3066C396.336 80.584 395.867 84.6855 395.281 88.6113C394.227 96.3457 393.201 101.766 392.205 104.871C391.268 107.977 390.652 110.057 390.359 111.111C390.125 112.166 389.803 113.133 389.393 114.012C388.455 116.062 387.195 117.352 385.613 117.879C384.09 118.406 382.186 118.787 379.9 119.021C377.674 119.256 375.418 119.402 373.133 119.461C369.266 119.637 366.102 119.725 363.641 119.725C349.344 119.725 340.73 118.055 337.801 114.715C334.754 111.316 332.293 99.5391 330.418 79.3828C329.773 72.4688 329.451 67.4297 329.451 64.2656C329.451 61.043 329.48 58.5234 329.539 56.707C329.598 54.832 329.715 53.0449 329.891 51.3457C330.418 45.0762 330.945 41.1211 331.473 39.4805C332.059 37.8398 332.674 36.6387 333.318 35.877C334.666 34.2949 336.98 33.123 340.262 32.3613C357.43 28.5527 375.301 26.6484 393.875 26.6484L396.16 26.7363C396.395 26.7949 396.6 26.8242 396.775 26.8242L398.357 47.127C396.951 47.0098 395.691 46.9512 394.578 46.9512H390.447C379.432 46.9512 370.701 47.4785 364.256 48.5332C357.811 49.5293 354.002 50.2031 352.83 50.5547C352.01 56.5898 351.6 64.3535 351.6 73.8457C351.6 83.2793 352.684 92.332 354.852 101.004H371.902C373.777 92.2148 375.096 80.4961 375.857 65.8477L376.121 60.6621L397.127 57.7617Z" fill="#232323"/>
<defs>
<linearGradient id="paint0_linear_0_1" x1="64.4435" y1="125.579" x2="64.4435" y2="3.45486" gradientUnits="userSpaceOnUse">
<stop stop-color="#CC7D24"/>
<stop offset="0.195" stop-color="#CC7D24"/>
<stop offset="0.452" stop-color="#CC7D24"/>
<stop offset="0.743" stop-color="#CC7D24"/>
<stop offset="1" stop-color="#CC7D24"/>
</linearGradient>
<linearGradient id="paint1_linear_0_1" x1="28.9014" y1="129.554" x2="28.9014" y2="75.3891" gradientUnits="userSpaceOnUse">
<stop stop-color="#CC7D24"/>
<stop offset="0.195" stop-color="#CC7D24"/>
<stop offset="0.452" stop-color="#CC7D24"/>
<stop offset="0.743" stop-color="#CC7D24"/>
<stop offset="1" stop-color="#CC7D24"/>
</linearGradient>
</defs>
</svg>
