<svg width="1921" height="736" viewBox="0 0 1921 736" fill="none" xmlns="http://www.w3.org/2000/svg">
<g clip-path="url(#clip0_1_150)">
<path d="M445 122.167C445 151.65 433.279 179.926 412.416 200.773C391.552 221.621 363.255 233.333 333.75 233.333L222.5 233.333L222.5 122.167C222.5 92.6835 234.221 64.4078 255.084 43.56C275.948 22.7122 304.245 11 333.75 11C363.255 11 391.552 22.7122 412.416 43.56C433.279 64.4078 445 92.6835 445 122.167Z" fill="#CC7D24"/>
<path d="M222.5 678L222.5 455.667H111.25C81.7447 455.667 53.4478 467.379 32.5844 488.227C11.7209 509.074 0 537.35 0 566.833C0 596.317 11.7209 624.592 32.5844 645.44C53.4478 666.288 81.7447 678 111.25 678H222.5Z" fill="#CC7D24"/>
<path d="M445 566.833C445 537.35 433.279 509.074 412.416 488.227C391.552 467.379 363.255 455.667 333.75 455.667L222.5 455.667L222.5 678L333.75 678C363.255 678 391.552 666.288 412.416 645.44C433.279 624.592 445 596.317 445 566.833Z" fill="#CC7D24"/>
<path d="M445 344.5C445 315.017 433.279 286.741 412.416 265.893C391.552 245.046 363.255 233.333 333.75 233.333L222.5 233.333L222.5 455.667H333.75C363.255 455.667 391.552 443.955 412.416 423.107C433.279 402.259 445 373.983 445 344.5H445Z" fill="#CC7D24"/>
<path d="M-0.564484 246.036C-0.67999 216.553 10.9301 188.232 31.7117 167.303C52.4933 146.373 80.744 134.551 110.249 134.435C139.754 134.32 168.097 145.921 189.042 166.687C209.987 187.453 221.818 215.683 221.934 245.166C222.049 274.649 210.439 302.97 189.658 323.899C168.876 344.829 140.625 356.651 111.12 356.767C81.6151 356.882 53.2725 345.281 32.3276 324.515C11.3827 303.749 -0.448978 275.519 -0.564484 246.036Z" fill="#8C4A10"/>
</g>
<path d="M1117.04 470.28C1117.04 530.593 1103.76 574.583 1077.2 602.25C1051.19 629.363 1002.78 642.92 931.95 642.92C861.123 642.92 805.79 626.873 765.95 594.78C757.65 554.94 753.5 515.1 753.5 475.26C753.5 435.42 759.033 398.07 770.1 363.21C781.72 327.797 796.107 297.64 813.26 272.74C849.227 221.833 881.32 189.463 909.54 175.63C962.66 202.743 1009.42 239.54 1049.81 286.02C1094.63 336.927 1117.04 398.347 1117.04 470.28ZM1020.76 447.87C1020.76 395.303 1009.69 347.163 987.56 303.45C941.633 327.797 903.73 364.87 873.85 414.67C843.97 464.47 829.03 514.823 829.03 565.73C846.737 569.05 872.19 570.71 905.39 570.71C938.59 570.71 972.62 564.9 1007.48 553.28C1016.33 519.527 1020.76 484.39 1020.76 447.87ZM1242.44 132.47C1227.5 116.977 1220.03 98.7167 1220.03 77.69C1220.03 56.6633 1227.5 38.68 1242.44 23.7399C1257.93 8.24662 1276.19 0.499951 1297.22 0.499951C1318.25 0.499951 1336.23 8.24662 1351.17 23.7399C1366.66 38.68 1374.41 56.6633 1374.41 77.69C1374.41 98.7167 1366.66 116.977 1351.17 132.47C1336.23 147.41 1318.25 154.88 1297.22 154.88C1276.19 154.88 1257.93 147.41 1242.44 132.47ZM1215.05 735.05C1179.64 735.05 1146.44 722.6 1115.45 697.7L1140.35 655.37C1156.95 666.99 1175.49 672.8 1195.96 672.8C1235.25 672.8 1254.89 648.453 1254.89 599.76C1254.89 594.227 1242.16 469.173 1216.71 224.6L1394.33 198.04L1341.21 627.15C1332.36 699.083 1290.3 735.05 1215.05 735.05ZM1724.27 642.09C1657.32 642.09 1605.03 624.937 1567.4 590.63C1535.31 512.61 1519.26 433.207 1519.26 352.42C1519.26 293.213 1527.56 240.923 1544.16 195.55C1561.31 150.177 1581.51 115.317 1604.75 90.97C1646.8 77.69 1683.6 71.05 1715.14 71.05C1782.09 71.05 1834.38 88.2033 1872.01 122.51C1904.1 200.53 1920.15 279.933 1920.15 360.72C1920.15 419.927 1911.57 472.217 1894.42 517.59C1877.82 562.963 1857.9 597.823 1834.66 622.17C1792.61 635.45 1755.81 642.09 1724.27 642.09ZM1813.91 221.28C1813.91 195.273 1811.97 172.587 1808.1 153.22C1792.05 149.347 1772.69 147.41 1750 147.41C1710.71 191.123 1680 244.52 1657.87 307.6C1636.29 370.127 1625.5 431.547 1625.5 491.86C1625.5 517.867 1627.44 540.553 1631.31 559.92C1647.36 563.793 1666.72 565.73 1689.41 565.73C1728.7 522.017 1759.13 468.897 1780.71 406.37C1802.84 343.29 1813.91 281.593 1813.91 221.28Z" fill="#232323"/>
<defs>
<clipPath id="clip0_1_150">
<rect x="445" y="678" width="445" height="667" rx="90" transform="rotate(-180 445 678)" fill="white"/>
</clipPath>
</defs>
</svg>
